# xmcd CD database file
#
# Track frame offsets:
#	150
#	14932
#	26531
#	40698
#	54255
#	69073
#	79589
#	93954
#	109039
#	122592
#	135708
#	150592
#	164399
#	177868
#	190766
#	205715
#	219029
#	232363
#	246221
#	256810
#
# Disc length: 3579 seconds
#
# Revision: 5
# Processed by: cddbd v1.5.2PL0 Copyright (c) Steve Scherf et al.
# Submitted via: CDex 1.51
#
DISCID=fe0df914
DTITLE=Sarah Vaughan - Hall Of Fame - Disc 3 (The Nearness of You)
DYEAR=2002
DGENRE=Vocal
TTITLE0=Black Coffee
TTITLE1=As You Desire Me
TTITLE2=While You Are Gone
TTITLE3=Just Friends
TTITLE4=You Taught Me to Love Again
TTITLE5=Lonely Girl
TTITLE6=You're Mine, You
TTITLE7=The Nearness of You
TTITLE8=I'm Crazy to Love You
TTITLE9=Don't Be Afraid
TTITLE10=I'll Know
TTITLE11=Thinking of You
TTITLE12=These Things I Offer You
TTITLE13=After Hours
TTITLE14=Just a Moment More
TTITLE15=Time to Go
TTITLE16=Corner to Corner
TTITLE17=Street of Dreams
TTITLE18=I Confess
TTITLE19=A Blues Serenade
EXTD=YEAR: 2002
EXTT0=
EXTT1=
EXTT2=
EXTT3=
EXTT4=
EXTT5=
EXTT6=
EXTT7=
EXTT8=
EXTT9=
EXTT10=
EXTT11=
EXTT12=
EXTT13=
EXTT14=
EXTT15=
EXTT16=
EXTT17=
EXTT18=
EXTT19=
PLAYORDER=
